<svg width="269" height="78" viewBox="0 0 269 78" fill="none" xmlns="http://www.w3.org/2000/svg">
<path d="M267.118 68.6481C267.118 72.7834 263.698 76.1331 259.469 76.1331H9.1512C4.92368 76.1331 1.49219 72.7834 1.49219 68.6481V8.95766C1.49219 4.8243 4.92368 1.46289 9.1512 1.46289H259.467C263.698 1.46289 267.116 4.8243 267.116 8.95766L267.118 68.6481Z" fill="black"/>
<path d="M258.661 1.55362C263.268 1.55362 267.016 5.20802 267.016 9.69903V67.8979C267.016 72.3889 263.268 76.0433 258.661 76.0433H9.94852C5.34235 76.0433 1.59425 72.3889 1.59425 67.8979V9.69903C1.59425 5.20802 5.34235 1.55362 9.94852 1.55362H258.661ZM258.661 -0.000775949H9.94852C4.47932 -0.000775949 0 4.36656 0 9.69903V67.8979C0 73.2303 4.47932 77.5977 9.94852 77.5977H258.661C264.131 77.5977 268.61 73.2303 268.61 67.8979V9.69903C268.61 4.36656 264.131 -0.000775949 258.661 -0.000775949Z" fill="#A6A6A6"/>
<path d="M59.9458 38.3761C59.8881 32.1236 65.1967 29.0817 65.4394 28.9401C62.433 24.6664 57.7731 24.0825 56.1356 24.0359C52.2218 23.6343 48.4255 26.3192 46.4318 26.3192C44.3983 26.3192 41.3282 24.0747 38.0193 24.1407C33.7613 24.2047 29.778 26.6083 27.5933 30.3408C23.0846 37.9512 26.4472 49.1351 30.7668 55.2867C32.9277 58.2995 35.4526 61.6634 38.7575 61.545C41.9908 61.4151 43.1985 59.5352 47.1003 59.5352C50.9663 59.5352 52.1004 61.545 55.471 61.4694C58.941 61.4151 61.1257 58.443 63.2109 55.4031C65.708 51.95 66.7108 48.5492 66.7506 48.3746C66.669 48.3475 60.0115 45.8702 59.9458 38.3761Z" fill="white"/>
<path d="M53.5788 19.9891C55.3178 17.8688 56.5076 14.984 56.1773 12.0566C53.6604 12.1653 50.5127 13.7541 48.7 15.8279C47.0963 17.6554 45.6637 20.6507 46.0338 23.4675C48.8612 23.6731 51.7642 22.0765 53.5788 19.9891Z" fill="white"/>
<path d="M106.738 61.1119H102.219L99.7443 53.5286H91.1408L88.783 61.1119H84.3838L92.9077 35.2949H98.1724L106.738 61.1119ZM98.9982 50.3471L96.7597 43.6057C96.523 42.917 96.0793 41.2952 95.4246 38.7422H95.3451C95.0844 39.8403 94.6646 41.4621 94.0876 43.6057L91.8889 50.3471H98.9982Z" fill="white"/>
<path d="M128.658 51.5764C128.658 54.7424 127.781 57.245 126.026 59.0821C124.454 60.7175 122.502 61.5342 120.172 61.5342C117.657 61.5342 115.851 60.6535 114.75 58.892H114.671V68.6985H110.429V48.6257C110.429 46.6353 110.375 44.5926 110.271 42.4974H114.002L114.239 45.4481H114.319C115.733 43.2249 117.88 42.1152 120.761 42.1152C123.014 42.1152 124.894 42.9824 126.398 44.7187C127.906 46.4569 128.658 48.7421 128.658 51.5764ZM124.337 51.7277C124.337 49.9158 123.919 48.422 123.079 47.2464C122.162 46.0204 120.93 45.4073 119.386 45.4073C118.34 45.4073 117.389 45.7488 116.539 46.4219C115.687 47.1009 115.13 47.9875 114.87 49.0855C114.738 49.5977 114.673 50.0167 114.673 50.3465V53.4504C114.673 54.8045 115.099 55.9472 115.95 56.8803C116.802 57.8134 117.908 58.279 119.269 58.279C120.867 58.279 122.11 57.6776 123 56.4787C123.891 55.2779 124.337 53.6949 124.337 51.7277Z" fill="white"/>
<path d="M150.619 51.5764C150.619 54.7424 149.742 57.245 147.985 59.0821C146.415 60.7175 144.463 61.5342 142.133 61.5342C139.618 61.5342 137.812 60.6535 136.713 58.892H136.634V68.6985H132.392V48.6257C132.392 46.6353 132.338 44.5926 132.234 42.4974H135.965L136.202 45.4481H136.281C137.694 43.2249 139.841 42.1152 142.724 42.1152C144.974 42.1152 146.855 42.9824 148.363 44.7187C149.865 46.4569 150.619 48.7421 150.619 51.5764ZM146.298 51.7277C146.298 49.9158 145.878 48.422 145.038 47.2464C144.121 46.0204 142.893 45.4073 141.347 45.4073C140.299 45.4073 139.35 45.7488 138.498 46.4219C137.646 47.1009 137.091 47.9875 136.831 49.0855C136.701 49.5977 136.634 50.0167 136.634 50.3465V53.4504C136.634 54.8045 137.059 55.9472 137.907 56.8803C138.759 57.8115 139.865 58.279 141.23 58.279C142.828 58.279 144.071 57.6776 144.961 56.4787C145.852 55.2779 146.298 53.6949 146.298 51.7277Z" fill="white"/>
<path d="M175.172 53.8733C175.172 56.0694 174.39 57.8561 172.82 59.2354C171.095 60.7427 168.694 61.4954 165.608 61.4954C162.758 61.4954 160.474 60.96 158.745 59.8872L159.728 56.4399C161.59 57.5379 163.634 58.0889 165.86 58.0889C167.458 58.0889 168.702 57.7358 169.595 57.0335C170.484 56.3313 170.928 55.3884 170.928 54.2128C170.928 53.1652 170.562 52.2826 169.828 51.5667C169.098 50.8509 167.878 50.1855 166.175 49.5705C161.539 47.8847 159.223 45.4151 159.223 42.1676C159.223 40.0453 160.034 38.3051 161.66 36.951C163.28 35.595 165.44 34.918 168.142 34.918C170.552 34.918 172.554 35.3273 174.151 36.144L173.091 39.5157C171.599 38.7242 169.911 38.3284 168.023 38.3284C166.531 38.3284 165.365 38.6873 164.529 39.4012C163.823 40.0395 163.469 40.8174 163.469 41.7389C163.469 42.7593 163.873 43.6032 164.684 44.2666C165.391 44.8797 166.674 45.5431 168.536 46.259C170.815 47.1533 172.488 48.1989 173.564 49.3978C174.637 50.5929 175.172 52.0886 175.172 53.8733Z" fill="white"/>
<path d="M189.197 45.5998H184.521V54.6381C184.521 56.9369 185.345 58.0854 186.997 58.0854C187.755 58.0854 188.383 58.0214 188.881 57.8933L188.998 61.0341C188.163 61.3387 187.062 61.492 185.699 61.492C184.024 61.492 182.715 60.9934 181.77 59.9982C180.828 59.0011 180.355 57.3288 180.355 54.9795V45.5959H177.569V42.492H180.355V39.0835L184.521 37.8574V42.492H189.197V45.5998Z" fill="white"/>
<path d="M210.294 51.6521C210.294 54.5135 209.454 56.8628 207.779 58.7C206.022 60.5914 203.69 61.5343 200.783 61.5343C197.982 61.5343 195.751 60.6283 194.088 58.8164C192.424 57.0044 191.593 54.7172 191.593 51.9605C191.593 49.0758 192.448 46.713 194.165 44.8758C195.879 43.0367 198.191 42.1172 201.098 42.1172C203.899 42.1172 206.153 43.0232 207.855 44.837C209.482 46.5966 210.294 48.8683 210.294 51.6521ZM205.893 51.786C205.893 50.0691 205.517 48.5967 204.755 47.3687C203.865 45.8827 202.594 45.1416 200.946 45.1416C199.241 45.1416 197.946 45.8846 197.057 47.3687C196.294 48.5986 195.918 50.0943 195.918 51.8636C195.918 53.5804 196.294 55.0528 197.057 56.2789C197.974 57.7649 199.255 58.506 200.909 58.506C202.528 58.506 203.8 57.7494 204.717 56.2401C205.499 54.9888 205.893 53.5009 205.893 51.786Z" fill="white"/>
<path d="M224.082 46.1348C223.663 46.0592 223.215 46.0204 222.745 46.0204C221.253 46.0204 220.099 46.5694 219.287 47.6693C218.581 48.6393 218.227 49.8654 218.227 51.3456V61.1133H213.987L214.026 48.36C214.026 46.2144 213.973 44.2608 213.867 42.4993H217.562L217.717 46.0611H217.835C218.282 44.837 218.989 43.8515 219.956 43.1124C220.901 42.447 221.922 42.1152 223.022 42.1152C223.414 42.1152 223.768 42.1424 224.082 42.1909V46.1348Z" fill="white"/>
<path d="M243.055 50.9244C243.055 51.6654 243.005 52.2901 242.9 52.8003H230.174C230.224 54.6394 230.838 56.0459 232.02 57.0158C233.093 57.883 234.479 58.3175 236.183 58.3175C238.067 58.3175 239.786 58.0246 241.332 57.4368L241.997 60.3079C240.19 61.0762 238.057 61.4583 235.596 61.4583C232.635 61.4583 230.311 60.6086 228.62 58.9112C226.933 57.2137 226.087 54.9343 226.087 52.0748C226.087 49.2676 226.873 46.93 228.447 45.0657C230.094 43.0753 232.321 42.0801 235.122 42.0801C237.874 42.0801 239.957 43.0753 241.372 45.0657C242.492 46.6467 243.055 48.6022 243.055 50.9244ZM239.01 49.8516C239.038 48.6255 238.761 47.5663 238.186 46.672C237.452 45.5216 236.324 44.9473 234.806 44.9473C233.419 44.9473 232.291 45.508 231.429 46.6332C230.723 47.5275 230.303 48.6003 230.174 49.8496H239.01V49.8516Z" fill="white"/>
<path d="M97.595 19.4213C97.595 21.7046 96.8927 23.4234 95.4899 24.5777C94.1906 25.6427 92.3442 26.1762 89.9526 26.1762C88.7667 26.1762 87.7519 26.1258 86.9023 26.0249V13.549C88.0106 13.3744 89.2044 13.2852 90.4938 13.2852C92.772 13.2852 94.4891 13.7682 95.6471 14.7343C96.9444 15.8265 97.595 17.3882 97.595 19.4213ZM95.3964 19.4775C95.3964 17.9973 94.9945 16.8624 94.1906 16.0709C93.3868 15.2814 92.2129 14.8856 90.6669 14.8856C90.0103 14.8856 89.4512 14.9283 88.9876 15.0175V24.502C89.2442 24.5408 89.7138 24.5583 90.3963 24.5583C91.992 24.5583 93.2236 24.1257 94.0912 23.2604C94.9587 22.3952 95.3964 21.1342 95.3964 19.4775Z" fill="white"/>
<path d="M109.253 21.4135C109.253 22.82 108.841 23.9723 108.017 24.8764C107.154 25.8056 106.01 26.2693 104.581 26.2693C103.204 26.2693 102.108 25.825 101.29 24.9326C100.474 24.0422 100.066 22.9189 100.066 21.5648C100.066 20.1487 100.486 18.9866 101.33 18.0846C102.174 17.1825 103.308 16.7305 104.736 16.7305C106.113 16.7305 107.219 17.1747 108.057 18.0652C108.853 18.9304 109.253 20.0478 109.253 21.4135ZM107.09 21.4795C107.09 20.6356 106.903 19.912 106.531 19.3087C106.093 18.5793 105.47 18.2145 104.661 18.2145C103.823 18.2145 103.186 18.5793 102.749 19.3087C102.374 19.912 102.189 20.6472 102.189 21.5164C102.189 22.3602 102.376 23.0838 102.749 23.6872C103.2 24.4166 103.829 24.7813 104.641 24.7813C105.437 24.7813 106.061 24.4108 106.511 23.6678C106.897 23.0528 107.09 22.3234 107.09 21.4795Z" fill="white"/>
<path d="M124.885 16.918L121.95 26.0629H120.04L118.824 22.0918C118.516 21.1005 118.265 20.115 118.07 19.1373H118.032C117.851 20.1422 117.6 21.1257 117.278 22.0918L115.987 26.0629H114.055L111.295 16.918H113.438L114.498 21.2654C114.755 22.2936 114.966 23.2733 115.135 24.2006H115.173C115.328 23.4362 115.585 22.4624 115.947 21.2848L117.278 16.9199H118.977L120.253 21.1917C120.561 22.2335 120.812 23.2364 121.005 24.2025H121.062C121.204 23.2616 121.417 22.2587 121.699 21.1917L122.837 16.9199H124.885V16.918Z" fill="white"/>
<path d="M135.694 26.0636H133.609V20.8257C133.609 19.2117 132.98 18.4046 131.719 18.4046C131.1 18.4046 130.6 18.6258 130.212 19.07C129.828 19.5143 129.633 20.0381 129.633 20.6375V26.0617H127.548V19.5317C127.548 18.7286 127.522 17.8576 127.473 16.9147H129.305L129.403 18.3445H129.46C129.703 17.9002 130.065 17.5336 130.541 17.2407C131.106 16.8992 131.739 16.7266 132.431 16.7266C133.306 16.7266 134.035 17.002 134.614 17.5549C135.334 18.232 135.694 19.2427 135.694 20.5851V26.0636Z" fill="white"/>
<path d="M141.444 26.0618H139.36V12.7207H141.444V26.0618Z" fill="white"/>
<path d="M153.721 21.4135C153.721 22.82 153.309 23.9723 152.485 24.8764C151.622 25.8056 150.475 26.2693 149.049 26.2693C147.67 26.2693 146.574 25.825 145.758 24.9326C144.942 24.0422 144.534 22.9189 144.534 21.5648C144.534 20.1487 144.954 18.9866 145.798 18.0846C146.641 17.1825 147.775 16.7305 149.202 16.7305C150.581 16.7305 151.685 17.1747 152.525 18.0652C153.321 18.9304 153.721 20.0478 153.721 21.4135ZM151.556 21.4795C151.556 20.6356 151.369 19.912 150.997 19.3087C150.561 18.5793 149.936 18.2145 149.128 18.2145C148.289 18.2145 147.652 18.5793 147.216 19.3087C146.842 19.912 146.657 20.6472 146.657 21.5164C146.657 22.3602 146.844 23.0838 147.216 23.6872C147.668 24.4166 148.297 24.7813 149.109 24.7813C149.904 24.7813 150.527 24.4108 150.977 23.6678C151.365 23.0528 151.556 22.3234 151.556 21.4795Z" fill="white"/>
<path d="M163.812 26.0617H161.94L161.785 25.0083H161.727C161.087 25.8483 160.173 26.2693 158.987 26.2693C158.102 26.2693 157.386 25.9918 156.847 25.4409C156.357 24.9404 156.112 24.3177 156.112 23.5785C156.112 22.4611 156.59 21.6095 157.551 21.0197C158.51 20.43 159.859 20.1409 161.596 20.1545V19.9838C161.596 18.7791 160.947 18.1777 159.648 18.1777C158.723 18.1777 157.907 18.4047 157.203 18.8547L156.779 17.52C157.65 16.9943 158.727 16.7305 159.996 16.7305C162.448 16.7305 163.677 17.9914 163.677 20.5134V23.8812C163.677 24.7949 163.723 25.5224 163.812 26.0617ZM161.648 22.9189V21.5086C159.348 21.4698 158.198 22.0848 158.198 23.3516C158.198 23.8288 158.329 24.1857 158.597 24.4244C158.866 24.663 159.208 24.7813 159.616 24.7813C160.074 24.7813 160.502 24.6397 160.892 24.3584C161.284 24.0752 161.524 23.7163 161.614 23.2759C161.636 23.177 161.648 23.0567 161.648 22.9189Z" fill="white"/>
<path d="M175.661 26.0618H173.81L173.713 24.5933H173.655C173.064 25.7107 172.057 26.2694 170.643 26.2694C169.513 26.2694 168.571 25.8368 167.825 24.9716C167.079 24.1063 166.707 22.9831 166.707 21.6038C166.707 20.1236 167.111 18.9247 167.923 18.009C168.709 17.1555 169.672 16.7287 170.818 16.7287C172.077 16.7287 172.959 17.1419 173.46 17.9702H173.5V12.7207H175.587V23.5981C175.587 24.4885 175.611 25.3091 175.661 26.0618ZM173.5 22.2052V20.6804C173.5 20.4165 173.48 20.2031 173.442 20.0402C173.325 19.5513 173.072 19.14 172.688 18.8083C172.3 18.4766 171.832 18.3097 171.293 18.3097C170.515 18.3097 169.906 18.6104 169.459 19.2138C169.015 19.8171 168.79 20.5872 168.79 21.5281C168.79 22.4321 169.003 23.1655 169.431 23.73C169.883 24.3314 170.491 24.6321 171.253 24.6321C171.938 24.6321 172.485 24.3818 172.901 23.8794C173.303 23.4157 173.5 22.857 173.5 22.2052Z" fill="white"/>
<path d="M193.495 21.4135C193.495 22.82 193.083 23.9723 192.259 24.8764C191.396 25.8056 190.254 26.2693 188.823 26.2693C187.448 26.2693 186.352 25.825 185.532 24.9326C184.716 24.0422 184.309 22.9189 184.309 21.5648C184.309 20.1487 184.728 18.9866 185.572 18.0846C186.416 17.1825 187.55 16.7305 188.98 16.7305C190.355 16.7305 191.464 17.1747 192.299 18.0652C193.095 18.9304 193.495 20.0478 193.495 21.4135ZM191.334 21.4795C191.334 20.6356 191.147 19.912 190.775 19.3087C190.335 18.5793 189.715 18.2145 188.903 18.2145C188.067 18.2145 187.43 18.5793 186.991 19.3087C186.617 19.912 186.432 20.6472 186.432 21.5164C186.432 22.3602 186.619 23.0838 186.991 23.6872C187.442 24.4166 188.071 24.7813 188.883 24.7813C189.679 24.7813 190.306 24.4108 190.755 23.6678C191.139 23.0528 191.334 22.3234 191.334 21.4795Z" fill="white"/>
<path d="M204.707 26.0636H202.624V20.8257C202.624 19.2117 201.995 18.4046 200.731 18.4046C200.113 18.4046 199.613 18.6258 199.227 19.07C198.841 19.5143 198.648 20.0381 198.648 20.6375V26.0617H196.561V19.5317C196.561 18.7286 196.537 17.8576 196.487 16.9147H198.318L198.415 18.3445H198.473C198.718 17.9002 199.08 17.5336 199.553 17.2407C200.12 16.8992 200.751 16.7266 201.446 16.7266C202.319 16.7266 203.047 17.002 203.626 17.5549C204.349 18.232 204.707 19.2427 204.707 20.5851V26.0636Z" fill="white"/>
<path d="M218.74 18.4391H216.444V22.8816C216.444 24.0106 216.852 24.5752 217.659 24.5752C218.033 24.5752 218.344 24.5441 218.589 24.4801L218.642 26.0224C218.23 26.1737 217.689 26.2493 217.023 26.2493C216.199 26.2493 215.558 26.0049 215.095 25.516C214.629 25.0272 214.398 24.2046 214.398 23.0503V18.4391H213.027V16.9162H214.398V15.2401L216.442 14.6387V16.9142H218.738V18.4391H218.74Z" fill="white"/>
<path d="M229.779 26.0618H227.691V20.8627C227.691 19.2235 227.063 18.4028 225.803 18.4028C224.836 18.4028 224.176 18.8781 223.814 19.8287C223.752 20.0285 223.716 20.273 223.716 20.5601V26.0599H221.633V12.7207H223.716V18.2321H223.756C224.412 17.2292 225.354 16.7287 226.573 16.7287C227.437 16.7287 228.151 17.0041 228.718 17.557C229.425 18.2457 229.779 19.27 229.779 20.6241V26.0618Z" fill="white"/>
<path d="M241.166 21.0584C241.166 21.4231 241.138 21.7296 241.088 21.9799H234.835C234.863 22.8839 235.161 23.5726 235.74 24.0498C236.269 24.4766 236.952 24.69 237.787 24.69C238.713 24.69 239.556 24.5465 240.316 24.2574L240.643 25.6697C239.753 26.0461 238.707 26.2342 237.495 26.2342C236.043 26.2342 234.898 25.8171 234.071 24.983C233.239 24.1488 232.827 23.0294 232.827 21.6249C232.827 20.2456 233.211 19.0971 233.985 18.1815C234.793 17.2037 235.885 16.7148 237.264 16.7148C238.613 16.7148 239.638 17.2037 240.33 18.1815C240.889 18.9574 241.166 19.9177 241.166 21.0584ZM239.176 20.5327C239.192 19.9294 239.055 19.4094 238.772 18.971C238.41 18.4065 237.859 18.1233 237.113 18.1233C236.432 18.1233 235.877 18.3987 235.454 18.9516C235.107 19.392 234.902 19.9177 234.835 20.5327H239.176Z" fill="white"/>
</svg>
