<svg width="84" height="84" viewBox="0 0 84 84" fill="none" xmlns="http://www.w3.org/2000/svg">
<circle opacity="0.1" cx="42" cy="42" r="42" fill="#01CC88"/>
<path opacity="0.4" d="M44.0521 39.1502V36.2046C43.4739 36.2046 42.9944 35.7388 42.9944 35.177V31.6697C42.9944 31.2025 42.6136 30.834 42.134 30.834H32.4447C29.3983 30.834 26.916 33.2439 26.916 36.2046V39.7516C26.916 40.027 27.0288 40.2873 27.2263 40.4791C27.4238 40.6696 27.6917 40.7792 27.9738 40.7792C29.0457 40.7792 29.8637 41.519 29.8637 42.4917C29.8637 43.507 29.0316 44.3153 27.9879 44.3276C27.4096 44.3276 26.916 44.7249 26.916 45.3003V48.809C26.916 51.7684 29.3983 54.1659 32.4306 54.1659H42.134C42.6136 54.1659 42.9944 53.7947 42.9944 53.3302V50.3695C42.9944 49.7955 43.4739 49.342 44.0521 49.342V46.6855C43.4739 46.6855 42.9944 46.2183 42.9944 45.6579V40.1777C42.9944 39.616 43.4739 39.1502 44.0521 39.1502" fill="#01CC88"/>
<path d="M53.1346 42.4931C53.1346 43.507 53.9808 44.3153 55.0104 44.329C55.5887 44.329 56.0823 44.7263 56.0823 45.288V48.809C56.0823 51.7697 53.6141 54.1673 50.5677 54.1673H45.9699C45.5044 54.1673 45.1095 53.796 45.1095 53.3302V50.3709C45.1095 49.7955 44.6441 49.3434 44.0518 49.3434V46.6868C44.6441 46.6868 45.1095 46.2197 45.1095 45.6593V40.1791C45.1095 39.616 44.6441 39.1516 44.0518 39.1516V36.2046C44.6441 36.2046 45.1095 35.7388 45.1095 35.177V31.6711C45.1095 31.2039 45.5044 30.834 45.9699 30.834H50.5677C53.6141 30.834 56.0823 33.2316 56.0823 36.1909V39.6434C56.0823 39.9174 55.9695 40.1791 55.772 40.3695C55.5746 40.5613 55.3066 40.6709 55.0245 40.6709C53.9808 40.6709 53.1346 41.4943 53.1346 42.4931" fill="#01CC88"/>
</svg>
