<svg width="84" height="84" viewBox="0 0 84 84" fill="none" xmlns="http://www.w3.org/2000/svg">
<circle opacity="0.1" cx="42" cy="42" r="42" fill="#192259"/>
<path opacity="0.4" d="M56.1663 41.9997C56.1663 49.8253 49.8239 56.1663 41.9997 56.1663C34.1754 56.1663 27.833 49.8253 27.833 41.9997C27.833 34.1768 34.1754 27.833 41.9997 27.833C49.8239 27.833 56.1663 34.1768 56.1663 41.9997" fill="#192259"/>
<path d="M47.0624 47.4033C46.8768 47.4033 46.6898 47.3551 46.5184 47.2545L40.9565 43.9367C40.6364 43.744 40.4395 43.397 40.4395 43.023V35.873C40.4395 35.2865 40.9155 34.8105 41.502 34.8105C42.0885 34.8105 42.5645 35.2865 42.5645 35.873V42.4195L47.6078 45.427C48.1107 45.7288 48.2764 46.3805 47.9761 46.8848C47.7764 47.2177 47.4236 47.4033 47.0624 47.4033" fill="#192259"/>
</svg>
