<svg width="84" height="84" viewBox="0 0 84 84" fill="none" xmlns="http://www.w3.org/2000/svg">
<circle opacity="0.1" cx="42" cy="42" r="42" fill="#FF2E63"/>
<path opacity="0.4" d="M46.7546 30.334H50.7049C52.3409 30.334 53.6665 31.6708 53.6665 33.3206V37.3043C53.6665 38.9541 52.3409 40.2909 50.7049 40.2909H46.7546C45.1186 40.2909 43.793 38.9541 43.793 37.3043V33.3206C43.793 31.6708 45.1186 30.334 46.7546 30.334Z" fill="#FF2E63"/>
<path fill-rule="evenodd" clip-rule="evenodd" d="M33.2946 30.334H37.2449C38.8809 30.334 40.2065 31.6708 40.2065 33.3206V37.3043C40.2065 38.9541 38.8809 40.2909 37.2449 40.2909H33.2946C31.6586 40.2909 30.333 38.9541 30.333 37.3043V33.3206C30.333 31.6708 31.6586 30.334 33.2946 30.334ZM33.2946 43.7109H37.2449C38.8809 43.7109 40.2065 45.0478 40.2065 46.6976V50.6812C40.2065 52.3299 38.8809 53.6678 37.2449 53.6678H33.2946C31.6586 53.6678 30.333 52.3299 30.333 50.6812V46.6976C30.333 45.0478 31.6586 43.7109 33.2946 43.7109ZM50.7049 43.7109H46.7546C45.1186 43.7109 43.793 45.0478 43.793 46.6976V50.6812C43.793 52.3299 45.1186 53.6678 46.7546 53.6678H50.7049C52.3409 53.6678 53.6665 52.3299 53.6665 50.6812V46.6976C53.6665 45.0478 52.3409 43.7109 50.7049 43.7109Z" fill="#FF2E63"/>
</svg>
