<svg width="269" height="78" viewBox="0 0 269 78" fill="none" xmlns="http://www.w3.org/2000/svg">
<path d="M259.066 77.8066H10.6946C5.23293 77.8066 0.759766 73.4393 0.759766 68.1068V9.90802C0.759766 4.57555 5.23293 0.208218 10.6946 0.208218H259.066C264.527 0.208218 269.001 4.57555 269.001 9.90802V68.1068C269.001 73.4393 264.527 77.8066 259.066 77.8066Z" fill="black"/>
<path d="M259.066 1.76261C263.666 1.76261 267.408 5.41701 267.408 9.90802V68.1068C267.408 72.5978 263.666 76.2522 259.066 76.2522H10.6946C6.09478 76.2522 2.35182 72.5978 2.35182 68.1068V9.90802C2.35182 5.41701 6.09478 1.76261 10.6946 1.76261H259.066ZM259.066 0.208218H10.6946C5.23293 0.208218 0.759766 4.57555 0.759766 9.90802V68.1068C0.759766 73.4393 5.23293 77.8066 10.6946 77.8066H259.066C264.527 77.8066 269.001 73.4393 269.001 68.1068V9.90802C269.001 4.57555 264.527 0.208218 259.066 0.208218Z" fill="#A6A6A6"/>
<path d="M94.9767 20.08C94.9767 21.6999 94.48 22.9973 93.5014 23.9648C92.3763 25.1118 90.9109 25.6889 89.1152 25.6889C87.3989 25.6889 85.9335 25.1021 84.7314 23.9454C83.5268 22.7717 82.9258 21.3313 82.9258 19.6072C82.9258 17.883 83.5268 16.4426 84.7314 15.2786C85.9335 14.1122 87.3989 13.5254 89.1152 13.5254C89.9696 13.5254 90.7842 13.6976 91.5616 14.0177C92.3366 14.3402 92.9674 14.7767 93.4244 15.315L92.3862 16.3383C91.589 15.4193 90.5036 14.9658 89.1152 14.9658C87.8634 14.9658 86.778 15.3926 85.8566 16.2535C84.945 17.1167 84.488 18.2346 84.488 19.6072C84.488 20.9797 84.945 22.1073 85.8566 22.9706C86.778 23.8217 87.8634 24.2582 89.1152 24.2582C90.444 24.2582 91.5616 23.8217 92.4434 22.9609C93.0246 22.391 93.3549 21.6053 93.4418 20.6014H89.1152V19.1998H94.8873C94.9569 19.5029 94.9767 19.7963 94.9767 20.08Z" fill="white" stroke="white" stroke-width="0.16" stroke-miterlimit="10"/>
<path d="M104.135 15.2213H98.7127V18.9072H103.601V20.3088H98.7127V23.9947H104.135V25.423H97.1777V13.793H104.135V15.2213Z" fill="white" stroke="white" stroke-width="0.16" stroke-miterlimit="10"/>
<path d="M110.597 25.423H109.062V15.2213H105.736V13.793H113.925V15.2213H110.597V25.423Z" fill="white" stroke="white" stroke-width="0.16" stroke-miterlimit="10"/>
<path d="M119.852 25.423V13.793H121.384V25.423H119.852Z" fill="white" stroke="white" stroke-width="0.16" stroke-miterlimit="10"/>
<path d="M128.177 25.423H126.655V15.2213H123.316V13.793H131.515V15.2213H128.177V25.423Z" fill="white" stroke="white" stroke-width="0.16" stroke-miterlimit="10"/>
<path d="M147.018 23.926C145.843 25.1021 144.388 25.6889 142.652 25.6889C140.906 25.6889 139.45 25.1021 138.276 23.926C137.103 22.7523 136.52 21.3119 136.52 19.6072C136.52 17.9024 137.103 16.462 138.276 15.2883C139.45 14.1122 140.906 13.5254 142.652 13.5254C144.378 13.5254 145.833 14.1122 147.008 15.298C148.191 16.4814 148.774 17.9121 148.774 19.6072C148.774 21.3119 148.19 22.7523 147.018 23.926ZM139.411 22.9512C140.295 23.8217 141.37 24.2582 142.652 24.2582C143.923 24.2582 145.009 23.8217 145.883 22.9512C146.765 22.0806 147.212 20.9627 147.212 19.6072C147.212 18.2516 146.765 17.1337 145.883 16.2632C145.009 15.3926 143.923 14.9561 142.652 14.9561C141.37 14.9561 140.295 15.3926 139.411 16.2632C138.529 17.1337 138.082 18.2516 138.082 19.6072C138.082 20.9627 138.529 22.0806 139.411 22.9512Z" fill="white" stroke="white" stroke-width="0.16" stroke-miterlimit="10"/>
<path d="M150.928 25.423V13.793H152.791L158.583 22.838H158.65L158.583 20.6022V13.793H160.115V25.423H158.515L152.45 15.9318H152.383L152.45 18.1773V25.423H150.928Z" fill="white" stroke="white" stroke-width="0.16" stroke-miterlimit="10"/>
<path d="M136.142 42.4064C131.475 42.4064 127.662 45.8741 127.662 50.6585C127.662 55.4041 131.475 58.9082 136.142 58.9082C140.818 58.9082 144.631 55.4041 144.631 50.6585C144.631 45.8741 140.818 42.4064 136.142 42.4064ZM136.142 55.6588C133.581 55.6588 131.378 53.5951 131.378 50.6585C131.378 47.6831 133.581 45.6558 136.142 45.6558C138.702 45.6558 140.915 47.6831 140.915 50.6585C140.915 53.5951 138.702 55.6588 136.142 55.6588ZM117.64 42.4064C112.964 42.4064 109.161 45.8741 109.161 50.6585C109.161 55.4041 112.964 58.9082 117.64 58.9082C122.315 58.9082 126.12 55.4041 126.12 50.6585C126.12 45.8741 122.315 42.4064 117.64 42.4064ZM117.64 55.6588C115.077 55.6588 112.867 53.5951 112.867 50.6585C112.867 47.6831 115.077 45.6558 117.64 45.6558C120.201 45.6558 122.404 47.6831 122.404 50.6585C122.404 53.5951 120.201 55.6588 117.64 55.6588ZM95.6248 44.9356V48.4421H104.201C103.95 50.4015 103.28 51.8419 102.251 52.8458C101 54.0583 99.0499 55.4041 95.6248 55.4041C90.3469 55.4041 86.214 51.2453 86.214 46.0923C86.214 40.9393 90.3469 36.7805 95.6248 36.7805C98.4786 36.7805 100.555 37.8693 102.087 39.2806L104.618 36.8096C102.475 34.8115 99.6236 33.2765 95.6248 33.2765C88.3873 33.2765 82.3047 39.026 82.3047 46.0923C82.3047 53.1586 88.3873 58.9082 95.6248 58.9082C99.5367 58.9082 102.475 57.6569 104.785 55.3096C107.152 52.9986 107.889 49.7491 107.889 47.1254C107.889 46.3106 107.82 45.5613 107.696 44.9356H95.6248ZM185.649 47.654C184.951 45.8086 182.798 42.4064 178.412 42.4064C174.065 42.4064 170.447 45.7504 170.447 50.6585C170.447 55.2805 174.028 58.9082 178.829 58.9082C182.711 58.9082 184.951 56.5972 185.873 55.2514L182.992 53.3769C182.031 54.7494 180.722 55.6588 178.829 55.6588C176.949 55.6588 175.6 54.8173 174.736 53.1586L186.039 48.5924L185.649 47.654ZM174.125 50.4015C174.028 47.2199 176.656 45.5904 178.539 45.5904C180.014 45.5904 181.266 46.3106 181.683 47.3412L174.125 50.4015ZM164.938 58.4062H168.653V34.1567H164.938V58.4062ZM158.853 44.2445H158.728C157.894 43.2794 156.302 42.4064 154.285 42.4064C150.053 42.4064 146.183 46.0341 146.183 50.6852C146.183 55.3096 150.053 58.9082 154.285 58.9082C156.302 58.9082 157.894 58.0279 158.728 57.0337H158.853V58.2171C158.853 61.3719 157.126 63.067 154.342 63.067C152.072 63.067 150.664 61.4665 150.083 60.1207L146.851 61.4374C147.783 63.6247 150.249 66.3164 154.342 66.3164C158.699 66.3164 162.375 63.8139 162.375 57.7248V42.9084H158.853V44.2445ZM154.603 55.6588C152.042 55.6588 149.899 53.566 149.899 50.6852C149.899 47.7777 152.042 45.6558 154.603 45.6558C157.126 45.6558 159.116 47.7777 159.116 50.6852C159.116 53.566 157.126 55.6588 154.603 55.6588ZM203.045 34.1567H194.159V58.4062H197.864V49.2181H203.045C207.161 49.2181 211.197 46.3106 211.197 41.6862C211.197 37.0642 207.151 34.1567 203.045 34.1567ZM203.142 45.845H197.864V37.5298H203.142C205.909 37.5298 207.489 39.7729 207.489 41.6862C207.489 43.5631 205.909 45.845 203.142 45.845ZM226.049 42.3603C223.372 42.3603 220.588 43.5146 219.443 46.0729L222.731 47.4188C223.439 46.0729 224.74 45.6364 226.116 45.6364C228.039 45.6364 229.989 46.764 230.018 48.7549V49.0095C229.348 48.6312 227.912 48.0711 226.146 48.0711C222.604 48.0711 218.996 49.9747 218.996 53.5272C218.996 56.7767 221.897 58.8694 225.158 58.8694C227.651 58.8694 229.027 57.7709 229.892 56.4929H230.018V58.3674H233.597V49.0653C233.597 44.7659 230.309 42.3603 226.049 42.3603ZM225.602 55.6491C224.39 55.6491 222.701 55.0622 222.701 53.5951C222.701 51.7182 224.808 50.998 226.631 50.998C228.262 50.998 229.027 51.3496 230.018 51.8128C229.728 54.0583 227.748 55.6491 225.602 55.6491ZM246.637 42.8914L242.377 53.4035H242.251L237.847 42.8914H233.851L240.467 57.5817L236.692 65.7562H240.564L250.76 42.8914H246.637ZM213.233 58.4062H216.949V34.1567H213.233V58.4062Z" fill="white"/>
<path d="M21.4937 14.831C20.91 15.4275 20.5723 16.3563 20.5723 17.5591V60.4613C20.5723 61.6641 20.91 62.5928 21.4937 63.1894L21.6378 63.3203L46.2613 39.289V38.7216L21.6378 14.6903L21.4937 14.831Z" fill="url(#paint0_linear_1285_30536)"/>
<path d="M54.4604 47.3066L46.2617 39.2922V38.7247L54.4704 30.7103L54.6542 30.8146L64.3754 36.2149C67.1497 37.7475 67.1497 40.2694 64.3754 41.8117L54.6542 47.2024L54.4604 47.3066Z" fill="url(#paint1_linear_1285_30536)"/>
<path d="M54.6542 47.2L46.2617 39.0061L21.4941 63.1901C22.4156 64.1359 23.9182 64.2498 25.627 63.3041L54.6542 47.2Z" fill="url(#paint2_linear_1285_30536)"/>
<path d="M54.6542 30.8139L25.627 14.7098C23.9182 13.7738 22.4156 13.8877 21.4941 14.8335L46.2617 39.0078L54.6542 30.8139Z" fill="url(#paint3_linear_1285_30536)"/>
<defs>
<linearGradient id="paint0_linear_1285_30536" x1="44.075" y1="60.9081" x2="11.5271" y2="27.5715" gradientUnits="userSpaceOnUse">
<stop stop-color="#00A0FF"/>
<stop offset="0.0066" stop-color="#00A1FF"/>
<stop offset="0.2601" stop-color="#00BEFF"/>
<stop offset="0.5122" stop-color="#00D2FF"/>
<stop offset="0.7604" stop-color="#00DFFF"/>
<stop offset="1" stop-color="#00E3FF"/>
</linearGradient>
<linearGradient id="paint1_linear_1285_30536" x1="67.988" y1="39.0057" x2="19.9096" y2="39.0057" gradientUnits="userSpaceOnUse">
<stop stop-color="#FFE000"/>
<stop offset="0.4087" stop-color="#FFBD00"/>
<stop offset="0.7754" stop-color="#FFA500"/>
<stop offset="1" stop-color="#FF9C00"/>
</linearGradient>
<linearGradient id="paint2_linear_1285_30536" x1="50.0906" y1="34.5518" x2="5.95303" y2="-10.6553" gradientUnits="userSpaceOnUse">
<stop stop-color="#FF3A44"/>
<stop offset="1" stop-color="#C31162"/>
</linearGradient>
<linearGradient id="paint3_linear_1285_30536" x1="15.2596" y1="77.4652" x2="34.969" y2="57.2784" gradientUnits="userSpaceOnUse">
<stop stop-color="#32A071"/>
<stop offset="0.0685" stop-color="#2DA771"/>
<stop offset="0.4762" stop-color="#15CF74"/>
<stop offset="0.8009" stop-color="#06E775"/>
<stop offset="1" stop-color="#00F076"/>
</linearGradient>
</defs>
</svg>
