<svg width="84" height="84" viewBox="0 0 84 84" fill="none" xmlns="http://www.w3.org/2000/svg">
<circle opacity="0.1" cx="42" cy="42" r="42" fill="#192259"/>
<path d="M49.6667 36.3333H47.9697V32.9394C47.9697 29.7152 45.2545 27 42.0303 27C38.8061 27 36.0909 29.7152 36.0909 32.9394V36.3333H34.3939C32.5273 36.3333 31 37.8606 31 39.7273V51.6061C31 53.4727 32.5273 55 34.3939 55H49.6667C51.5333 55 53.0606 53.4727 53.0606 51.6061V39.7273C53.0606 37.8606 51.5333 36.3333 49.6667 36.3333ZM38.6364 32.9394C38.6364 31.0727 40.1636 29.5455 42.0303 29.5455C43.897 29.5455 45.4242 31.0727 45.4242 32.9394V36.3333H38.6364V32.9394ZM43.3879 46.8545C43.3879 47.5333 42.8788 48.2121 42.0303 48.2121C41.3515 48.2121 40.6727 47.703 40.6727 46.8545V44.3091C40.6727 43.6303 41.1818 42.9515 42.0303 42.9515C42.7091 42.9515 43.3879 43.4606 43.3879 44.3091V46.8545Z" fill="#192259"/>
</svg>
