<svg width="84" height="84" viewBox="0 0 84 84" fill="none" xmlns="http://www.w3.org/2000/svg">
<circle opacity="0.1" cx="42" cy="42" r="42" fill="#01CC88"/>
<path d="M37.1336 43.1994H33.6668C32.2 43.1994 31 44.3995 31 45.8662V49.333C31 50.7997 32.2 51.9998 33.6668 51.9998H37.1336C38.6003 51.9998 39.8004 50.7997 39.8004 49.333V45.8662C39.8004 44.3995 38.6003 43.1994 37.1336 43.1994Z" fill="#01CC88"/>
<path d="M50.3348 43.1994H46.8681C45.4013 43.1994 44.2013 44.3995 44.2013 45.8662V49.333C44.2013 50.7997 45.4013 51.9998 46.8681 51.9998H50.3348C51.8016 51.9998 53.0016 50.7997 53.0016 49.333V45.8662C53.0016 44.3995 51.8016 43.1994 50.3348 43.1994Z" fill="#01CC88"/>
<path d="M50.3348 30H46.8681C45.4013 30 44.2013 31.2 44.2013 32.6668V36.1336C44.2013 37.6003 45.4013 38.8003 46.8681 38.8003H50.3348C51.8016 38.8003 53.0016 37.6003 53.0016 36.1336V32.6668C53.0016 31.2 51.8016 30 50.3348 30Z" fill="#01CC88"/>
<path d="M37.1336 30H33.6668C32.2 30 31 31.2 31 32.6668V36.1336C31 37.6003 32.2 38.8003 33.6668 38.8003H37.1336C38.6003 38.8003 39.8004 37.6003 39.8004 36.1336V32.6668C39.8004 31.2 38.6003 30 37.1336 30Z" fill="#01CC88"/>
</svg>
