<svg width="84" height="84" viewBox="0 0 84 84" fill="none" xmlns="http://www.w3.org/2000/svg">
<circle opacity="0.1" cx="42" cy="42" r="42" fill="#192259"/>
<path opacity="0.4" d="M50.8621 36.4039C50.2413 36.4039 49.419 36.3901 48.3951 36.3901C45.8982 36.3901 43.8451 34.3235 43.8451 31.8031V27.3811C43.8451 27.0333 43.5674 26.75 43.2229 26.75H35.95C32.5559 26.75 29.8125 29.5357 29.8125 32.9499V47.7655C29.8125 51.3474 32.6866 54.25 36.2332 54.25H47.0636C50.4455 54.25 53.1875 51.4821 53.1875 48.0652V37.0226C53.1875 36.6734 52.9111 36.3915 52.5653 36.3929C51.984 36.397 51.2869 36.4039 50.8621 36.4039" fill="#192259"/>
<path opacity="0.4" d="M47.1152 27.5309C46.7041 27.1032 45.9863 27.3975 45.9863 27.9901V31.616C45.9863 33.1367 47.239 34.388 48.7597 34.388C49.7181 34.399 51.0491 34.4017 52.1793 34.399C52.7582 34.3976 53.0525 33.706 52.651 33.288C51.2003 31.7796 48.603 29.0764 47.1152 27.5309" fill="#192259"/>
<path fill-rule="evenodd" clip-rule="evenodd" d="M37.3394 39.6567H41.9938C42.5589 39.6567 43.0182 39.1989 43.0182 38.6337C43.0182 38.0686 42.5589 37.6094 41.9938 37.6094H37.3394C36.7743 37.6094 36.3164 38.0686 36.3164 38.6337C36.3164 39.1989 36.7743 39.6567 37.3394 39.6567ZM37.3394 46.5233H44.8249C45.39 46.5233 45.8493 46.0654 45.8493 45.5003C45.8493 44.9352 45.39 44.4759 44.8249 44.4759H37.3394C36.7743 44.4759 36.3164 44.9352 36.3164 45.5003C36.3164 46.0654 36.7743 46.5233 37.3394 46.5233Z" fill="#192259"/>
</svg>
