<svg width="84" height="84" viewBox="0 0 84 84" fill="none" xmlns="http://www.w3.org/2000/svg">
<circle opacity="0.1" cx="42" cy="42" r="42" fill="#FF2E63"/>
<path d="M39.0755 28.7964C39.1562 28.9605 39.2094 29.1363 39.2333 29.317L39.6741 35.8719V35.8719L39.893 39.1665C39.8952 39.5053 39.9484 39.8419 40.0507 40.1655C40.315 40.7933 40.9508 41.1924 41.6426 41.1645L52.1833 40.4751C52.6397 40.4675 53.0805 40.6383 53.4086 40.9496C53.6821 41.2091 53.8586 41.5486 53.9142 41.9137L53.9329 42.1354C53.4967 48.1754 49.0607 53.2132 43.0332 54.5136C37.0058 55.8141 30.8249 53.0669 27.8464 47.7637C26.9878 46.223 26.4514 44.5295 26.2689 42.7827C26.1927 42.2655 26.1591 41.7432 26.1685 41.2208C26.1591 34.7453 30.7705 29.147 37.2255 27.7973C38.0024 27.6764 38.764 28.0877 39.0755 28.7964Z" fill="#FF2E63"/>
<path opacity="0.4" d="M43.3776 23.1683C50.5974 23.352 56.6654 28.5437 57.8334 35.5364L57.8222 35.588V35.588L57.7904 35.6631L57.7948 35.8691C57.7783 36.1419 57.6729 36.4045 57.4913 36.6166C57.3022 36.8375 57.0438 36.988 56.7593 37.0463L56.5857 37.0702L44.4245 37.8581C44.02 37.898 43.6172 37.7676 43.3164 37.4992C43.0657 37.2756 42.9054 36.9738 42.8601 36.6486L42.0439 24.505C42.0297 24.4639 42.0297 24.4194 42.0439 24.3784C42.055 24.0436 42.2024 23.7272 42.453 23.4999C42.7036 23.2725 43.0366 23.1531 43.3776 23.1683Z" fill="#FF2E63"/>
</svg>
