<svg width="78" height="60" viewBox="0 0 78 60" fill="none" xmlns="http://www.w3.org/2000/svg">
<path opacity="0.2" d="M71.5942 0L78 5.59006C73.8969 9.15114 70.5475 12.588 67.9517 15.9006C65.4396 19.1304 63.8486 21.5735 63.1787 23.2298C62.5089 24.8861 61.8808 26.8737 61.2947 29.1925L61.7971 29.9379C67.4074 29.9379 71.5105 31.1387 74.1063 33.5404C76.7021 35.942 78 39.6687 78 44.7205C78 48.6128 76.5765 52.1325 73.7295 55.2795C70.9662 58.4265 67.4911 60 63.3044 60C58.5314 60 54.5539 58.6749 51.372 56.0248C48.19 53.3747 46.599 49.1097 46.599 43.2298C46.599 35.4451 49.0274 27.412 53.8841 19.1304C58.8245 10.766 64.7279 4.38923 71.5942 0ZM24.9952 0L31.401 5.59006C27.2979 9.15114 23.9903 12.5466 21.4783 15.7764C18.9662 19.0062 17.3333 21.4907 16.5797 23.2298C15.9098 24.9689 15.2818 26.9565 14.6957 29.1925L15.1981 29.9379C20.8084 29.9379 24.9114 31.1387 27.5072 33.5404C30.1031 35.942 31.401 39.6687 31.401 44.7205C31.401 48.6128 29.9775 52.1325 27.1304 55.2795C24.3672 58.4265 20.8921 60 16.7053 60C11.9324 60 7.95491 58.6749 4.77295 56.0248C1.59098 53.3747 0 49.1097 0 43.2298C0 35.4451 2.42834 27.412 7.28502 19.1304C12.2254 10.766 18.1288 4.38923 24.9952 0Z" fill="#FF2E63"/>
</svg>
