<svg width="84" height="84" viewBox="0 0 84 84" fill="none" xmlns="http://www.w3.org/2000/svg">
<circle opacity="0.1" cx="42" cy="42" r="42" fill="#01CC88"/>
<path opacity="0.4" fill-rule="evenodd" clip-rule="evenodd" d="M37.3995 30.4647C37.3995 29.8626 36.9022 29.375 36.2897 29.375H36.2882L33.9126 29.3764C30.7174 29.3793 28.1172 31.9319 28.1172 35.0666V37.7779C28.1172 38.3785 28.6145 38.8676 29.227 38.8676C29.8395 38.8676 30.3382 38.3785 30.3382 37.7779V35.0666C30.3382 33.1317 31.9424 31.5572 33.9141 31.5544L36.2897 31.553C36.9036 31.553 37.3995 31.0653 37.3995 30.4647ZM49.0733 29.3754H46.7502C46.1377 29.3754 45.6404 29.8631 45.6404 30.4651C45.6404 31.0657 46.1377 31.552 46.7502 31.552H49.0733C51.0522 31.552 52.6623 33.1307 52.6623 35.0713V37.7784C52.6623 38.379 53.1595 38.868 53.772 38.868C54.386 38.868 54.8818 38.379 54.8818 37.7784V35.0713C54.8818 31.9295 52.2773 29.3754 49.0733 29.3754ZM37.4721 34.833H45.5279C46.4102 34.833 47.2575 35.1805 47.8744 35.7998C48.4956 36.4247 48.8398 37.2641 48.8384 38.1379V39.954C48.8311 40.1671 48.6575 40.3401 48.4402 40.3459H34.5569C34.3411 40.3387 34.1675 40.1657 34.1631 39.954V38.1379C34.1471 36.3289 35.6288 34.8516 37.4721 34.833Z" fill="#01CC88"/>
<path d="M56.4315 42.5605H26.5693C25.9568 42.5605 25.458 43.0482 25.458 43.6502C25.458 44.2509 25.9568 44.7371 26.5693 44.7371H28.1165V49.9338C28.1165 53.0685 30.7182 55.6211 33.9134 55.624L36.289 55.6254V55.6254C36.903 55.6254 37.3988 55.1378 37.4003 54.5357C37.4003 53.9351 36.903 53.4475 36.2905 53.4475L33.9163 53.446C31.9432 53.4432 30.3376 51.8687 30.3376 49.9338V44.7371H34.1628V46.1828C34.1482 47.9918 35.6284 49.4705 37.4718 49.4877H45.5276C47.3724 49.4705 48.8526 47.9918 48.838 46.1828V44.7371H52.6632V49.9281C52.6632 51.8701 51.0532 53.4475 49.0743 53.4475H46.7511C46.1372 53.4475 45.6399 53.9351 45.6399 54.5357C45.6399 55.1378 46.1372 55.6254 46.7511 55.6254H49.0743C52.2768 55.6254 54.8828 53.0714 54.8828 49.9281V44.7371H56.4315C57.044 44.7371 57.5413 44.2509 57.5413 43.6502C57.5413 43.0482 57.044 42.5605 56.4315 42.5605" fill="#01CC88"/>
</svg>
