<svg width="84" height="84" viewBox="0 0 84 84" fill="none" xmlns="http://www.w3.org/2000/svg">
<circle opacity="0.1" cx="42" cy="42" r="42" fill="#FF2E63"/>
<path opacity="0.4" d="M56.0837 48.2462C56.0837 52.3149 52.817 55.6107 48.7482 55.6253H48.7337H34.2816C30.2274 55.6253 26.917 52.3441 26.917 48.2753V48.2607C26.917 48.2607 26.9257 41.8062 26.9374 38.5599C26.9389 37.9503 27.6389 37.6091 28.1157 37.9882C31.5807 40.7372 37.7772 45.7495 37.8545 45.8151C38.8899 46.6449 40.2024 47.113 41.5441 47.113C42.8857 47.113 44.1982 46.6449 45.2337 45.7991C45.311 45.748 51.3689 40.886 54.8864 38.0918C55.3647 37.7112 56.0676 38.0524 56.0691 38.6605C56.0837 41.882 56.0837 48.2462 56.0837 48.2462" fill="#FF2E63"/>
<path d="M55.3193 33.2746C54.0564 30.8946 51.5714 29.375 48.8355 29.375H34.2814C31.5455 29.375 29.0605 30.8946 27.7976 33.2746C27.5147 33.8069 27.6489 34.4704 28.1199 34.8467L38.948 43.5077C39.7064 44.1202 40.6251 44.425 41.5439 44.425C41.5497 44.425 41.5541 44.425 41.5584 44.425C41.5628 44.425 41.5687 44.425 41.573 44.425C42.4918 44.425 43.4105 44.1202 44.1689 43.5077L54.997 34.8467C55.468 34.4704 55.6022 33.8069 55.3193 33.2746" fill="#FF2E63"/>
</svg>
