<svg width="84" height="84" viewBox="0 0 84 84" fill="none" xmlns="http://www.w3.org/2000/svg">
<circle opacity="0.1" cx="42" cy="42" r="42" fill="#01CC88"/>
<path opacity="0.4" d="M41.6635 56.7562C38.2389 54.641 35.0555 52.1468 32.1714 49.3194C30.1353 47.3007 28.5803 44.8357 27.6253 42.1129C25.9188 36.8028 27.9053 30.7342 33.4512 28.9326C36.3785 28.0133 39.5621 28.5776 42.0101 30.4498V30.4498C44.459 28.5797 47.6416 28.0156 50.569 28.9326C56.115 30.7342 58.1147 36.8028 56.4083 42.1129C55.461 44.8331 53.9153 47.2979 51.8888 49.3194C49.0021 52.1437 45.819 54.6376 42.3967 56.7562L42.0234 57L41.6635 56.7562Z" fill="#01CC88"/>
<path d="M42.0164 57.0004L41.664 56.7566C38.2352 54.6415 35.0473 52.1474 32.1585 49.3198C30.1128 47.3038 28.5486 44.8387 27.5858 42.1133C25.8927 36.8032 27.8791 30.7346 33.425 28.933C36.3523 28.0137 39.5779 28.5784 42.0164 30.4662V57.0004Z" fill="#01CC88"/>
<path d="M51.3457 38.9988V38.9988C51.0443 38.9794 50.7637 38.8288 50.5696 38.5823C50.3754 38.3359 50.2848 38.0151 50.3189 37.6952V37.6952C50.3515 36.6417 49.752 35.6828 48.8276 35.3097C48.2414 35.1496 47.8864 34.5148 48.033 33.8887C48.1722 33.2727 48.749 32.8897 49.3288 33.0284C49.402 33.0405 49.4724 33.067 49.5366 33.1066C51.3901 33.8199 52.5902 35.7396 52.4947 37.8386C52.4917 38.1568 52.3676 38.46 52.151 38.6787C51.9343 38.8975 51.6437 39.013 51.3457 38.9988Z" fill="#01CC88"/>
</svg>
