<svg width="84" height="84" viewBox="0 0 84 84" fill="none" xmlns="http://www.w3.org/2000/svg">
<circle opacity="0.1" cx="42" cy="42" r="42" fill="#01CC88"/>
<path opacity="0.4" d="M48.5458 54.168H35.4549C31.6434 54.168 28.542 51.0953 28.542 47.3178V39.7682C28.542 35.9906 31.6434 32.918 35.4549 32.918H48.5458C52.3572 32.918 55.4587 35.9906 55.4587 39.7682V47.3178C55.4587 51.0953 52.3572 54.168 48.5458 54.168" fill="#01CC88"/>
<path d="M47.3198 37.1673C46.7373 37.1673 46.2645 36.7088 46.2645 36.1438V32.0062C46.2645 29.7314 44.3567 27.8809 42.0127 27.8809C40.9335 27.8809 39.8009 28.3013 38.9947 29.075C38.1871 29.8515 37.7397 30.8845 37.7355 31.9871V36.1438C37.7355 36.7088 37.2627 37.1673 36.6802 37.1673C36.0977 37.1673 35.625 36.7088 35.625 36.1438V32.0062C35.632 30.3291 36.3018 28.7816 37.5089 27.623C38.7147 26.4617 40.2736 25.879 42.0169 25.834C45.5202 25.834 48.375 28.6028 48.375 32.0062V36.1438C48.375 36.7088 47.9023 37.1673 47.3198 37.1673" fill="#01CC88"/>
</svg>
