<svg width="84" height="84" viewBox="0 0 84 84" fill="none" xmlns="http://www.w3.org/2000/svg">
<circle opacity="0.1" cx="42" cy="42" r="42" fill="#192259"/>
<path fill-rule="evenodd" clip-rule="evenodd" d="M56.1613 36.8648H50.1622C47.3704 36.8697 45.1088 39.0748 45.1038 41.7968C45.1 44.525 47.3641 46.7399 50.1622 46.7436H56.1663V47.177C56.1663 51.9359 53.2814 54.75 48.3992 54.75H35.6014C30.718 54.75 27.833 51.9359 27.833 47.177V36.812C27.833 32.053 30.718 29.25 35.6014 29.25H48.3942C53.2763 29.25 56.1613 32.053 56.1613 36.812V36.8648ZM34.5474 36.8537H42.5374H42.5424H42.5525C43.1506 36.8513 43.6342 36.3761 43.6317 35.7917C43.6292 35.2085 43.1406 34.737 42.5424 34.7395H34.5474C33.953 34.7419 33.4707 35.2122 33.4682 35.7929C33.4657 36.3761 33.9492 36.8513 34.5474 36.8537Z" fill="#192259"/>
<path opacity="0.4" d="M47.719 42.4207C48.0153 43.7682 49.1967 44.7162 50.5455 44.6916H55.1496C55.7108 44.6916 56.166 44.2268 56.166 43.6523V40.0659C56.1648 39.4926 55.7108 39.0266 55.1496 39.0254H50.4371C48.9028 39.0303 47.6636 40.3039 47.666 41.8733C47.666 42.057 47.6841 42.2407 47.719 42.4207" fill="#192259"/>
<ellipse cx="50.4997" cy="41.8581" rx="1.41667" ry="1.41667" fill="#192259"/>
</svg>
