<svg width="84" height="84" viewBox="0 0 84 84" fill="none" xmlns="http://www.w3.org/2000/svg">
<circle opacity="0.1" cx="42" cy="42" r="42" fill="#0E164D"/>
<path fill-rule="evenodd" clip-rule="evenodd" d="M46.5946 31.7119C46.5946 34.8583 49.149 37.4089 52.3 37.4089C52.647 37.4072 52.9931 37.3739 53.334 37.3094V48.6041C53.334 53.3558 50.5311 56.167 45.7724 56.167H35.408C30.6369 56.167 27.834 53.3558 27.834 48.6041V38.2548C27.834 33.5031 30.6369 30.667 35.408 30.667H46.6943C46.6273 31.0112 46.5939 31.3612 46.5946 31.7119ZM43.6301 46.1038L47.6787 40.8794V40.8546C48.0253 40.3888 47.9369 39.7321 47.4794 39.3743C47.258 39.2034 46.9766 39.1294 46.6996 39.1692C46.4226 39.2091 46.1735 39.3594 46.0094 39.5858L42.5962 43.9768L38.7095 40.9168C38.4876 40.7439 38.2053 40.6676 37.9264 40.705C37.6474 40.7425 37.3954 40.8905 37.2271 41.1158L33.0414 46.5143C32.8943 46.6977 32.8151 46.9262 32.8172 47.1611C32.7929 47.636 33.0928 48.0674 33.5468 48.2107C34.0009 48.3541 34.4946 48.1732 34.7481 47.7707L38.2486 43.2429L42.1352 46.2904C42.3563 46.4686 42.6404 46.5494 42.9224 46.5142C43.2043 46.4791 43.4598 46.3309 43.6301 46.1038Z" fill="#192259"/>
<ellipse opacity="0.4" cx="52.6257" cy="31.3757" rx="3.54167" ry="3.54167" fill="#192259"/>
</svg>
